<svg xmlns="http://www.w3.org/2000/svg" viewBox="0 0 20 20"><defs><style>.a{fill:#f2ca0d;}.b{fill:#dbdbdd;}</style></defs><title>icon-star-half-light</title><path class="a" d="M9.71.26,6.53,6.08.38,7.58A.51.51,0,0,0,0,7.92a.5.5,0,0,0,.11.48l4.34,4.82-1,6.2a.5.5,0,0,0,.21.49.48.48,0,0,0,.53,0l5.91-3.38V0A.46.46,0,0,0,9.71.26Z"/><path class="b" d="M20,7.92a.5.5,0,0,0-.36-.33L13.68,6.08,10.58.27A.49.49,0,0,0,10.14,0S10.05,0,10,0V16.63l.14-.08L16,19.93a.47.47,0,0,0,.25.07.47.47,0,0,0,.28-.09.47.47,0,0,0,.21-.48l-.9-6.22,4.07-4.82A.5.5,0,0,0,20,7.92Z"/></svg>